# xmcd CD database file
#
# Track frame offsets:
#	150
#	16800
#	36422
#	53762
#	67604
#	83628
#	100224
#	119678
#	132683
#	146906
#	160456
#	178065
#	193745
#	205756
#	218760
#	233183
#	246362
#	261855
#	279732
#	292311
#
# Disc length: 4120 seconds
#
# Revision: 2
# Processed by: cddbd v1.5.2PL0 Copyright (c) Steve Scherf et al.
# Submitted via: jetAudio 7
#
DISCID=3d101614
DTITLE=Kenny Rogers - The Best OF Kenny Rogers - Disc 1
DYEAR=1900
DGENRE=Country
TTITLE0=Lucille
TTITLE1=Coward Of The County
TTITLE2=We've Got Tonight
TTITLE3=All I Ever Need Is You
TTITLE4=Green Green Grass Of Home
TTITLE5=Don't Fall In Love With A Dreamer
TTITLE6=Sweet Music Man
TTITLE7=We Love Each Other
TTITLE8=The Son Of Hickory Holler's Tramp
TTITLE9=Every Time Two Fools Collide
TTITLE10=All My Life
TTITLE11=I Wasn't Man Enough
TTITLE12=My World Begins And Ends With You
TTITLE13=You Are So Beautiful
TTITLE14=Love The World Away
TTITLE15=Together Again
TTITLE16=Let It Be Me
TTITLE17=You Were A Good Friend
TTITLE18=Reuben James
TTITLE19=Twentieth Century Fool
EXTD=
EXTT0=
EXTT1=
EXTT2=
EXTT3=
EXTT4=
EXTT5=
EXTT6=
EXTT7=
EXTT8=
EXTT9=
EXTT10=
EXTT11=
EXTT12=
EXTT13=
EXTT14=
EXTT15=
EXTT16=
EXTT17=
EXTT18=
EXTT19=
PLAYORDER=
